<!DOCTYPE svg PUBLIC "-//W3C//DTD SVG 1.1//EN" "http://www.w3.org/Graphics/SVG/1.1/DTD/svg11.dtd">
<!-- Uploaded to: SVG Repo, www.svgrepo.com, Transformed by: SVG Repo Mixer Tools -->
<svg height="800px" width="800px" version="1.1" id="Layer_1" xmlns="http://www.w3.org/2000/svg" xmlns:xlink="http://www.w3.org/1999/xlink" viewBox="0 0 504 504" xml:space="preserve" fill="#000000">
<g id="SVGRepo_bgCarrier" stroke-width="0"/>
<g id="SVGRepo_tracerCarrier" stroke-linecap="round" stroke-linejoin="round"/>
<g id="SVGRepo_iconCarrier"> <circle style="fill:#84DBFF;" cx="252" cy="252" r="252"/> <g> <path style="fill:#324A5E;" d="M347,255.3c0.3,18,7.1,32.3,15.5,32.3s15.2-14.4,15.5-32.3H347z"/> <path style="fill:#324A5E;" d="M126.1,255.3c0.3,18,7.1,32.3,15.5,32.3s15.2-14.4,15.5-32.3H126.1z"/> </g> <g> <polygon style="fill:#E6E9EE;" points="405.1,340.6 252,303.3 252,199.3 405.1,302 "/> <polygon style="fill:#E6E9EE;" points="98.9,340.6 252,303.3 252,199.3 98.9,302 "/> </g> <path style="fill:#FFFFFF;" d="M252,415.9L252,415.9c-11.5,0-20.9-23-21.3-34.4l-7.4-250.4c-0.6-16.3,12.4-43,28.7-43l0,0 c16.3,0,29.3,26.7,28.7,43l-7.4,250.4C272.9,392.9,263.5,415.9,252,415.9z"/> <path style="fill:#ACB3BA;" d="M270.2,145.6c0,0.4,0,0.9,0,1.3c-4.7-4.5-11.1-7.2-18.1-7.2s-13.4,2.7-18.1,7.2c0-0.4,0-0.9,0-1.3 c0-10,8.1-18.2,18.2-18.2C262,127.4,270.2,135.5,270.2,145.6z"/> <g> <polygon style="fill:#E6E9EE;" points="310.7,415.9 252,401.6 252,361.7 310.7,401.1 "/> <polygon style="fill:#E6E9EE;" points="193.3,415.9 252,401.6 252,361.7 193.3,401.1 "/> </g> </g>
</svg>