<!DOCTYPE svg PUBLIC "-//W3C//DTD SVG 1.1//EN" "http://www.w3.org/Graphics/SVG/1.1/DTD/svg11.dtd">
<!-- Uploaded to: SVG Repo, www.svgrepo.com, Transformed by: SVG Repo Mixer Tools -->
<svg height="800px" width="800px" version="1.1" id="Layer_1" xmlns="http://www.w3.org/2000/svg" xmlns:xlink="http://www.w3.org/1999/xlink" viewBox="0 0 473.935 473.935" xml:space="preserve" fill="#000000">
<g id="SVGRepo_bgCarrier" stroke-width="0"/>
<g id="SVGRepo_tracerCarrier" stroke-linecap="round" stroke-linejoin="round"/>
<g id="SVGRepo_iconCarrier"> <circle style="fill:#84DBFF;" cx="236.967" cy="236.967" r="236.967"/> <g> <path style="fill:#fa820a;" d="M384.794,246.816c0,2.185-1.77,3.948-3.94,3.948h-75.932c-2.178,0-3.94-1.762-3.94-3.948l0,0 c0-2.17,1.762-3.94,3.94-3.94h75.932C383.024,242.879,384.794,244.646,384.794,246.816L384.794,246.816z"/> <path style="fill:#fa820a;" d="M308.731,267.699c-1.695,0-3.076-0.516-3.076-1.152v-22.222c0-0.636,1.381-1.149,3.076-1.149l0,0 c1.688,0,3.061,0.513,3.061,1.149v22.222C311.792,267.186,310.419,267.699,308.731,267.699L308.731,267.699z"/> <path style="fill:#fa820a;" d="M377.352,267.699c-1.695,0-3.068-0.516-3.068-1.152v-22.222c0-0.636,1.373-1.149,3.068-1.149l0,0 c1.688,0,3.061,0.513,3.061,1.149v22.222C380.416,267.186,379.043,267.699,377.352,267.699L377.352,267.699z"/> <path style="fill:#fa820a;" d="M336.473,267.699c-1.695,0-3.068-0.516-3.068-1.152v-22.222c0-0.636,1.373-1.149,3.068-1.149l0,0 c1.688,0,3.061,0.513,3.061,1.149v22.222C339.534,267.186,338.16,267.699,336.473,267.699L336.473,267.699z"/> <path style="fill:#fa820a;" d="M322.157,267.699c-1.688,0-3.061-0.516-3.061-1.152v-22.222c0-0.636,1.373-1.149,3.061-1.149l0,0 c1.695,0,3.068,0.513,3.068,1.149v22.222C325.225,267.186,323.852,267.699,322.157,267.699L322.157,267.699z"/> <path style="fill:#fa820a;" d="M350.19,267.699c-1.695,0-3.061-0.516-3.061-1.152v-22.222c0-0.636,1.366-1.149,3.061-1.149l0,0 c1.695,0,3.068,0.513,3.068,1.149v22.222C353.258,267.186,351.885,267.699,350.19,267.699L350.19,267.699z"/> <path style="fill:#fa820a;" d="M363.631,267.699c-1.695,0-3.068-0.516-3.068-1.152v-22.222c0-0.636,1.373-1.149,3.068-1.149l0,0 c1.695,0,3.061,0.513,3.061,1.149v22.222C366.691,267.186,365.326,267.699,363.631,267.699L363.631,267.699z"/> <path style="fill:#fa820a;" d="M378.953,243.463h-73.002c0-18.226,16.34-36.213,36.497-36.213 C362.613,207.25,378.953,225.237,378.953,243.463z"/> <path style="fill:#fa820a;" d="M172.141,246.816c0,2.185-1.77,3.948-3.94,3.948H92.269c-2.178,0-3.94-1.762-3.94-3.948l0,0 c0-2.17,1.762-3.94,3.94-3.94h75.932C170.371,242.879,172.141,244.646,172.141,246.816L172.141,246.816z"/> <path style="fill:#fa820a;" d="M96.07,267.699c-1.688,0-3.068-0.516-3.068-1.152v-22.222c0-0.636,1.381-1.149,3.068-1.149l0,0 c1.695,0,3.068,0.513,3.068,1.149v22.222C99.139,267.186,97.765,267.699,96.07,267.699L96.07,267.699z"/> <path style="fill:#fa820a;" d="M164.691,267.699c-1.688,0-3.061-0.516-3.061-1.152v-22.222c0-0.636,1.373-1.149,3.061-1.149l0,0 c1.695,0,3.068,0.513,3.068,1.149v22.222C167.763,267.186,166.39,267.699,164.691,267.699L164.691,267.699z"/> <path style="fill:#fa820a;" d="M123.812,267.699c-1.695,0-3.068-0.516-3.068-1.152v-22.222c0-0.636,1.373-1.149,3.068-1.149l0,0 c1.695,0,3.068,0.513,3.068,1.149v22.222C126.88,267.186,125.507,267.699,123.812,267.699L123.812,267.699z"/> <path style="fill:#fa820a;" d="M109.5,267.699c-1.688,0-3.061-0.516-3.061-1.152v-22.222c0-0.636,1.373-1.149,3.061-1.149l0,0 c1.695,0,3.068,0.513,3.068,1.149v22.222C112.572,267.186,111.198,267.699,109.5,267.699L109.5,267.699z"/> <path style="fill:#fa820a;" d="M137.537,267.699c-1.695,0-3.061-0.516-3.061-1.152v-22.222c0-0.636,1.366-1.149,3.061-1.149l0,0 c1.695,0,3.068,0.513,3.068,1.149v22.222C140.605,267.186,139.232,267.699,137.537,267.699L137.537,267.699z"/> <path style="fill:#fa820a;" d="M150.974,267.699c-1.695,0-3.068-0.516-3.068-1.152v-22.222c0-0.636,1.373-1.149,3.068-1.149l0,0 c1.688,0,3.061,0.513,3.061,1.149v22.222C154.038,267.186,152.665,267.699,150.974,267.699L150.974,267.699z"/> <path style="fill:#fa820a;" d="M166.3,243.463H93.29c0-18.226,16.34-36.213,36.505-36.213S166.3,225.237,166.3,243.463z"/> </g> <path style="fill:#CADCBA;" d="M190.154,264.152H94.701c-10.818,0-19.622,8.808-19.622,19.622v91.446 c0,1.624,1.317,2.937,2.945,2.937h128.815c1.624,0,2.945-1.317,2.945-2.937v-91.446C209.783,272.96,200.979,264.152,190.154,264.152 z"/> <g> <path style="fill:#fa820a;" d="M303.257,146.528c0,3.371-2.732,6.099-6.095,6.099H179.703c-3.368,0-6.095-2.728-6.095-6.099l0,0 c0-3.356,2.728-6.092,6.095-6.092h117.458C300.522,140.441,303.257,143.172,303.257,146.528L303.257,146.528z"/> <path style="fill:#fa820a;" d="M185.581,178.831c-2.608,0-4.745-0.797-4.745-1.781v-34.376c0-0.988,2.133-1.785,4.745-1.785l0,0 c2.623,0,4.752,0.797,4.752,1.785v34.38C190.33,178.034,188.204,178.831,185.581,178.831L185.581,178.831z"/> <path style="fill:#fa820a;" d="M291.74,178.831c-2.616,0-4.745-0.797-4.745-1.781v-34.376c0-0.988,2.125-1.785,4.745-1.785l0,0 c2.623,0,4.745,0.797,4.745,1.785v34.38C296.481,178.034,294.363,178.831,291.74,178.831L291.74,178.831z"/> <path style="fill:#fa820a;" d="M228.5,178.831c-2.623,0-4.752-0.797-4.752-1.781v-34.376c0-0.988,2.125-1.785,4.752-1.785l0,0 c2.615,0,4.745,0.797,4.745,1.785v34.38C233.244,178.034,231.115,178.831,228.5,178.831L228.5,178.831z"/> <path style="fill:#fa820a;" d="M206.356,178.831c-2.616,0-4.737-0.797-4.737-1.781v-34.376c0-0.988,2.118-1.785,4.737-1.785l0,0 c2.623,0,4.752,0.797,4.752,1.785v34.38C211.108,178.034,208.979,178.831,206.356,178.831L206.356,178.831z"/> <path style="fill:#fa820a;" d="M249.723,178.831c-2.615,0-4.737-0.797-4.737-1.781v-34.376c0-0.988,2.118-1.785,4.737-1.785l0,0 c2.623,0,4.752,0.797,4.752,1.785v34.38C254.475,178.034,252.346,178.831,249.723,178.831L249.723,178.831z"/> <path style="fill:#fa820a;" d="M270.516,178.831c-2.623,0-4.752-0.797-4.752-1.781v-34.376c0-0.988,2.125-1.785,4.752-1.785l0,0 c2.616,0,4.737,0.797,4.737,1.785v34.38C275.25,178.034,273.132,178.831,270.516,178.831L270.516,178.831z"/> <path style="fill:#fa820a;" d="M294.232,141.342H181.29c0-28.198,25.28-56.022,56.464-56.022 C268.945,85.32,294.232,113.144,294.232,141.342z"/> <path style="fill:#fa820a;" d="M246.112,65.597c-8.61,0-15.581-6.971-15.581-15.581c0-7.674,5.545-14.039,12.849-15.334 c-1.036-0.153-2.077-0.251-3.143-0.251c-11.854,0-21.455,9.598-21.455,21.452s9.601,21.455,21.455,21.455 c11.854,0,21.455-9.601,21.455-21.455c0-1.066-0.101-2.11-0.254-3.136C260.144,60.048,253.787,65.597,246.112,65.597z"/> <path style="fill:#fa820a;" d="M245.282,93.002c0,2.623-15.053,2.623-15.053,0l2.784-17.167c0-2.616,2.125-4.745,4.745-4.745l0,0 c2.623,0,4.745,2.125,4.745,4.745L245.282,93.002z"/> </g> <path style="fill:#CADCBA;" d="M378.837,264.152h-95.446c-10.825,0-19.629,8.808-19.629,19.622v91.446 c0,1.624,1.317,2.937,2.945,2.937h128.815c1.624,0,2.945-1.317,2.945-2.937v-91.446C398.467,272.96,389.662,264.152,378.837,264.152 z"/> <path style="fill:#D4E1C4;" d="M294.838,174.715H181.933c-12.797,0-23.21,10.413-23.21,23.21V374.68c0,1.923,1.557,3.48,3.487,3.48 h152.362c1.931,0,3.48-1.557,3.48-3.48V197.926C318.048,185.129,307.642,174.715,294.838,174.715z"/> <path style="fill:#C1D1B0;" d="M214.857,326.295c0-2.937,21.938-23.076,21.938-23.076s21.609,20.138,21.609,23.076v52.018h-43.547 V326.295z"/> <path style="fill:#4D4C4C;" d="M218.599,335.242c0-2.432,8.617-8.947,18.166-8.947c9.549,0,17.897,6.511,17.897,8.947v43.083 h-36.067v-43.083H218.599z"/> <path style="fill:#3B3838;" d="M218.599,335.242c0-2.432,8.617-8.947,18.166-8.947v52.026h-18.166L218.599,335.242L218.599,335.242z "/> <g> <path style="fill:#BABEB5;" d="M278.307,341.442c0-1.373,1.111-2.485,2.485-2.485h15.356c1.373,0,2.492,1.111,2.492,2.485v9.048 c0,1.373-1.119,2.492-2.492,2.492h-15.356c-1.373,0-2.485-1.119-2.485-2.492V341.442z"/> <path style="fill:#BABEB5;" d="M176.811,341.442c0-1.373,1.111-2.485,2.485-2.485h15.356c1.373,0,2.492,1.111,2.492,2.485v9.048 c0,1.373-1.119,2.492-2.492,2.492h-15.356c-1.373,0-2.485-1.119-2.485-2.492V341.442z"/> <path style="fill:#BABEB5;" d="M118.813,341.442c0-1.373,1.111-2.485,2.485-2.485h15.356c1.373,0,2.492,1.111,2.492,2.485v9.048 c0,1.373-1.119,2.492-2.492,2.492h-15.356c-1.373,0-2.485-1.119-2.485-2.492V341.442z"/> <path style="fill:#BABEB5;" d="M336.304,341.442c0-1.373,1.111-2.485,2.485-2.485h15.356c1.373,0,2.492,1.111,2.492,2.485v9.048 c0,1.373-1.119,2.492-2.492,2.492h-15.356c-1.373,0-2.485-1.119-2.485-2.492V341.442z"/> </g> </g>
</svg>