<?xml version="1.0" encoding="utf-8"?>
<!-- Generator: Adobe Illustrator 26.3.1, SVG Export Plug-In . SVG Version: 6.00 Build 0)  -->
<svg version="1.1" id="Warstwa_1" xmlns="http://www.w3.org/2000/svg" xmlns:xlink="http://www.w3.org/1999/xlink" x="0px" y="0px"
	 viewBox="0 0 430 430" style="enable-background:new 0 0 430 430;" xml:space="preserve">
<style type="text/css">
	.Styl_x0020_grafiki_x0020_2530{opacity:0.5;fill:#4bb3fd;}
	.Styl_x0020_grafiki_x0020_2446{opacity:0.5;fill:#ebe6ef;}
	.Styl_x0020_grafiki_x0020_2447{fill:#646e78;}
	.Styl_x0020_grafiki_x0020_2448{fill:#ebe6ef;}
	.Styl_x0020_grafiki_x0020_2454{fill:#4bb3fd;}
	.Styl_x0020_grafiki_x0020_2463{fill:#2ca58d;}
	.Styl_x0020_grafiki_x0020_2471{opacity:0.5;fill:#2ca58d;}
	.st0{fill:#646e78;}
	.st1{opacity:0.5;fill:#646e78;}
	.st2{fill:#121331;}
	.st3{fill:#3A3347;}
	.st4{fill:#4bb3fd;}
	.st5{opacity:0.5;fill:#4bb3fd;}
	.st6{opacity:0.5;fill:#3A3347;}
	.st7{fill:none;stroke:#121331;stroke-width:7;stroke-linecap:round;stroke-linejoin:round;stroke-miterlimit:10;}
	.st8{opacity:0.5;}
	.st9{fill:#ebe6ef;}
	.st10{opacity:0.5;fill:#ebe6ef;}
	.st11{fill:#F9C9C0;}
	.st12{fill:#2ca58d;}
	.st13{opacity:0.5;fill:#2ca58d;}
	.st14{opacity:0.5;fill:#F9C9C0;}
	.st15{fill:#F24C00;}
	.st16{opacity:0.5;fill:#F24C00;}
	.st17{fill:#B26836;}
	.st18{opacity:0.5;fill:#B26836;}
	.st19{fill:#FFFFFF;}
	.st20{fill:#F7F8F9;}
	.st21{fill:#FBFAFC;}
	.st22{fill:#FFC738;}
	.st23{opacity:0.5;fill:#FFC738;}
	.st24{fill:#FCFCFC;}
	.st25{fill:#92140C;}
	.st26{fill:#F28BA8;}
	.st27{opacity:0.5;fill:#F28BA8;}
	.st28{opacity:0.25;fill:#F9C9C0;}
	.st29{opacity:0.5;fill:#92140C;}
	.st30{opacity:0.1;fill:#3A3347;}
	.st31{fill:none;stroke:#08A88A;stroke-width:12;stroke-linecap:round;stroke-linejoin:round;stroke-miterlimit:10;}
	.st32{fill:none;stroke:#121331;stroke-width:12;stroke-linecap:round;stroke-linejoin:round;stroke-miterlimit:10;}
	.st33{fill:none;stroke:#646e78;stroke-width:7;stroke-linecap:round;stroke-linejoin:round;stroke-miterlimit:10;}
	.st34{fill:#08A88A;}
	.st35{fill:none;stroke:#ebe6ef;stroke-width:7;stroke-linecap:round;stroke-linejoin:round;stroke-miterlimit:10;}
	.st36{fill:#08A789;}
	.st37{fill:none;stroke:#F28BA8;stroke-width:7;stroke-linecap:round;stroke-linejoin:round;stroke-miterlimit:10;}
	.st38{fill:none;stroke:#FFC738;stroke-width:7;stroke-linecap:round;stroke-linejoin:round;stroke-miterlimit:10;}
	.st39{fill:none;stroke:#3A3347;stroke-width:7;stroke-linecap:round;stroke-linejoin:round;stroke-miterlimit:10;}
</style>
<path class="st3" d="M391.34,6.53c-0.01,0-0.01,0-0.02,0h6.07c0,0,0,0,0,0H391.34z"/>
<rect x="95.35" y="134.85" class="st19" width="108.97" height="84.29"/>
<rect x="95.35" y="134.85" class="Styl_x0020_grafiki_x0020_2471" width="108.97" height="84.29"/>
<path class="Styl_x0020_grafiki_x0020_2463" d="M124.99,94.82h102.83l-32.6,40.03H95.35l27.19-38.75
	C123.1,95.29,124.02,94.82,124.99,94.82z"/>
<path class="Styl_x0020_grafiki_x0020_2454" d="M292.91,82.91l-23.73-25.57c-1.19-1.28-3.21-1.28-4.4,0l-23.73,25.57
	c-0.37,0.39-0.83,0.68-1.35,0.83c-29.44,8.64-50.94,35.86-50.94,68.1v223.18H342.2c1.66,0,3-1.34,3-3V151.84
	c0-32.24-21.49-59.46-50.94-68.1C293.74,83.59,293.27,83.31,292.91,82.91z"/>
<path class="Styl_x0020_grafiki_x0020_2448" d="M223.27,235.72h30.39c1.66,0,3-1.34,3-3v-27.15c0-1.66-1.34-3-3-3h-30.39
	c-1.66,0-3,1.34-3,3v27.15C220.27,234.37,221.62,235.72,223.27,235.72z"/>
<path class="Styl_x0020_grafiki_x0020_2448" d="M283.08,235.72h30.39c1.66,0,3-1.34,3-3v-27.15c0-1.66-1.34-3-3-3h-30.39
	c-1.66,0-3,1.34-3,3v27.15C280.08,234.37,281.42,235.72,283.08,235.72z"/>
<path class="Styl_x0020_grafiki_x0020_2448" d="M223.27,291.36h30.39c1.66,0,3-1.34,3-3V261.2c0-1.66-1.34-3-3-3h-30.39
	c-1.66,0-3,1.34-3,3v27.15C220.27,290.01,221.62,291.36,223.27,291.36z"/>
<path class="Styl_x0020_grafiki_x0020_2448" d="M283.08,291.36h30.39c1.66,0,3-1.34,3-3V261.2c0-1.66-1.34-3-3-3h-30.39
	c-1.66,0-3,1.34-3,3v27.15C280.08,290.01,281.42,291.36,283.08,291.36z"/>
<path class="Styl_x0020_grafiki_x0020_2448" d="M223.27,347h30.39c1.66,0,3-1.34,3-3v-27.15c0-1.66-1.34-3-3-3h-30.39
	c-1.66,0-3,1.34-3,3V344C220.27,345.65,221.62,347,223.27,347z"/>
<path class="Styl_x0020_grafiki_x0020_2448" d="M283.08,347h30.39c1.66,0,3-1.34,3-3v-27.15c0-1.66-1.34-3-3-3h-30.39
	c-1.66,0-3,1.34-3,3V344C280.08,345.65,281.42,347,283.08,347z"/>
<path class="st3" d="M292.91,121.22h-49.07c-1.93,0-3.5-1.57-3.5-3.5s1.57-3.5,3.5-3.5h49.07c1.93,0,3.5,1.57,3.5,3.5
	S294.84,121.22,292.91,121.22z"/>
<rect x="95.35" y="134.85" class="st13" width="24.17" height="84.29"/>
<polyline class="st13" points="123.43,94.82 95.35,134.85 119.63,134.85 146.21,94.99 "/>
<path class="st5" d="M212.92,152.01c0-32.24,21.49-59.46,50.94-68.1c0.52-0.15,0.98-0.44,1.35-0.83l13.93-15l-9.96-10.74
	c-1.19-1.28-3.21-1.28-4.4,0l-23.73,25.57c-0.37,0.39-0.83,0.68-1.35,0.83c-29.44,8.64-50.94,35.86-50.94,68.1v223.18h24.17V152.01z
	"/>
<path class="Styl_x0020_grafiki_x0020_2448" d="M188.76,217.56l-51.2-53.75c-1.18-1.24-3.16-1.24-4.34,0L82.84,216.7
	c-0.53,0.56-0.83,1.3-0.83,2.07v153.26c0,1.66,1.34,3,3,3h103.75V217.56z"/>
<path class="Styl_x0020_grafiki_x0020_2447" d="M118.37,268.28h34.03c1.66,0,3-1.34,3-3v-36.7c0-1.66-1.34-3-3-3h-34.03
	c-1.66,0-3,1.34-3,3v36.7C115.37,266.94,116.71,268.28,118.37,268.28z"/>
<path class="Styl_x0020_grafiki_x0020_2447" d="M118.37,343h34.03c1.66,0,3-1.34,3-3v-36.7c0-1.66-1.34-3-3-3h-34.03
	c-1.66,0-3,1.34-3,3V340C115.37,341.66,116.71,343,118.37,343z"/>
<path class="Styl_x0020_grafiki_x0020_2446" d="M106.18,217.73l41.37-43.43l-9.99-10.49c-1.18-1.24-3.16-1.24-4.34,0L82.84,216.7
	c-0.53,0.56-0.83,1.3-0.83,2.07v153.26c0,1.66,1.34,3,3,3h21.17V217.73z"/>
<path class="Styl_x0020_grafiki_x0020_2530" d="M345.2,169.95v-18.11c0-2.02-0.08-4.02-0.25-6H189.01c-0.17,1.98-0.25,3.98-0.25,6
	v18.11H345.2z"/>
</svg>
