<?xml version="1.0" encoding="utf-8"?>
<!-- Generator: Adobe Illustrator 26.2.1, SVG Export Plug-In . SVG Version: 6.00 Build 0)  -->
<svg version="1.1" id="Warstwa_1" xmlns="http://www.w3.org/2000/svg" xmlns:xlink="http://www.w3.org/1999/xlink" x="0px" y="0px"
	 viewBox="0 0 430 430" style="enable-background:new 0 0 430 430;" xml:space="preserve">
<style type="text/css">
	.st0{fill:#2CA58D;}
	.st1{opacity:0.5;fill:#2CA58D;}
	.st2{fill:#4BB3FD;}
	.st3{opacity:0.5;fill:#4BB3FD;}
	.st4{fill:#ffc738;}
	.st5{fill:#EBE6EF;}
	.st6{opacity:0.5;fill:#EBE6EF;}
	.st7{fill:#646E78;}
	.st8{opacity:0.5;fill:#646E78;}
	.st9{opacity:0.5;fill:#ffc738;}
	.st10{opacity:0.5;}
	.st11{fill:#121331;}
	.st12{fill:#FFFFFF;}
	.st13{fill:#3A3347;}
	.st14{fill:none;}
	.st15{opacity:0.5;fill:#F9C9C0;}
	.st16{fill:#B26836;}
	.st17{opacity:0.5;fill:#B26836;}
	.st18{fill:#F28BA8;}
	.st19{opacity:0.5;fill:#F28BA8;}
	.st20{fill:#F24C00;}
	.st21{opacity:0.5;fill:#F24C00;}
	.st22{fill:#92140C;}
	.st23{opacity:0.5;fill:#3A3347;}
	.st24{opacity:0.5;fill:#92140C;}
	.st25{fill:none;stroke:#121331;stroke-width:7;stroke-linecap:round;stroke-linejoin:round;stroke-miterlimit:10;}
	.st26{fill:#F9C9C0;}
</style>
<path class="st4" d="M342.7,325.9c-0.7,0.7-1,1.7-0.9,2.7l7,40.7c0.4,2.4-2.2,4.3-4.4,3.2L308,353.1c-0.9-0.5-1.9-0.5-2.8,0l-16,8.4
	v0l-20.5,10.8c-2.1,1.1-4.6-0.6-4.4-2.9c0-0.1,0-0.2,0-0.3l7-40.7c0.2-1-0.2-2-0.9-2.7L240.8,297c-1.6-1.7-0.7-4.6,1.6-5
	c0,0,0.1,0,0.1,0l24.5-3.6l16.3-2.4c1-0.1,1.8-0.8,2.3-1.6l18.2-37c1.1-2.2,4.3-2.2,5.4,0l18.3,37c0.4,0.9,1.3,1.5,2.3,1.6l40.8,5.9
	c2.5,0.4,3.4,3.4,1.7,5.1L342.7,325.9z"/>
<path class="st4" d="M325.9,136.3l-16.8,9.2c-0.5,0.3-0.9,0.7-1.2,1.2l-2.3,4.1l-6.9,12.6c0,0-0.1,0.1-0.1,0.1
	c-1.2,2-4.1,1.9-5.2-0.1l-9.2-16.8c-0.3-0.5-0.7-0.9-1.1-1.1l-16.8-9.2c-2.1-1.1-2.1-4.1,0-5.3l11.9-6.5l4.9-2.7
	c0.5-0.3,0.9-0.7,1.2-1.2l9.2-16.8c1.1-2.1,4.1-2.1,5.3,0l9.2,16.8c0.3,0.5,0.7,0.9,1.2,1.2l16.8,9.2
	C328,132.2,328,135.2,325.9,136.3z"/>
<path class="st4" d="M166.6,295.5l-16.8,9.2c-0.5,0.3-0.9,0.7-1.2,1.2l-2.3,4.1l-6.9,12.7c-1.1,2-3.9,2.1-5.1,0.2
	c-0.1-0.1-0.1-0.2-0.2-0.2l-9.2-16.8c-0.3-0.5-0.7-0.9-1.2-1.2l-16.9-9.2c-2-1.2-2-4.1,0-5.2l11.9-6.5h0l4.9-2.7
	c0.5-0.3,0.9-0.7,1.2-1.2l9.2-16.8c1.1-2.1,4.1-2.1,5.3,0l9.2,16.8c0.3,0.5,0.7,0.9,1.2,1.2l16.8,9.2
	C168.6,291.3,168.6,294.3,166.6,295.5z"/>
<path class="st9" d="M296.8,317.3l-7.6,44.2v0l-20.5,10.8c-2.1,1.1-4.6-0.6-4.4-2.9l7-40.9l0.3-1.6l-1.1-1.1L240.8,297
	c-1.6-1.7-0.7-4.6,1.6-5l24.7-3.6L296.8,317.3z"/>
<path class="st9" d="M146.3,310l-6.9,12.7c-1.1,2-3.9,2.1-5.1,0.2l-9.8-17.8l-0.8-0.4l-16.9-9.2c-2-1.2-2-4.1,0-5.2l11.9-6.5h0
	l18.7,10.2L146.3,310z"/>
<path class="st9" d="M305.7,150.8l-7,12.8c-1.2,2-4.1,1.9-5.2-0.1l-9.2-16.8l-0.4-0.7l-0.7-0.4l-16.8-9.2c-2.1-1.1-2.1-4.1,0-5.3
	l11.9-6.5l18.7,10.2L305.7,150.8z"/>
<path class="st4" d="M260.5,261.7c-0.9,0-1.8-0.3-2.5-1L135.5,138.1c-1.4-1.4-1.4-3.6,0-4.9c1.4-1.4,3.6-1.4,4.9,0L263,255.7
	c1.4,1.4,1.4,3.6,0,4.9C262.3,261.4,261.4,261.7,260.5,261.7z"/>
<path class="st4" d="M117,118.2c-0.9,0-1.8-0.3-2.5-1L54.6,57.3c-1.4-1.4-1.4-3.6,0-4.9c1.4-1.4,3.6-1.4,4.9,0l59.9,59.9
	c1.4,1.4,1.4,3.6,0,4.9C118.8,117.9,117.9,118.2,117,118.2z"/>
<path class="st4" d="M273.2,194.8c-0.9,0-1.8-0.3-2.5-1l-21-21c-1.4-1.4-1.4-3.6,0-4.9c1.4-1.4,3.6-1.4,4.9,0l21,21
	c1.4,1.4,1.4,3.6,0,4.9C275,194.4,274.1,194.8,273.2,194.8z"/>
<path class="st4" d="M230.9,152.5c-0.9,0-1.8-0.3-2.5-1l-87.2-87.2c-1.4-1.4-1.4-3.6,0-4.9c1.4-1.4,3.6-1.4,4.9,0l87.2,87.2
	c1.4,1.4,1.4,3.6,0,4.9C232.7,152.2,231.8,152.5,230.9,152.5z"/>
<path class="st4" d="M193.6,274.4c-0.9,0-1.8-0.3-2.5-1L127.7,210c-1.4-1.4-1.4-3.6,0-4.9c1.4-1.4,3.6-1.4,4.9,0l63.4,63.4
	c1.4,1.4,1.4,3.6,0,4.9C195.4,274,194.5,274.4,193.6,274.4z"/>
<path class="st4" d="M111.6,192.4c-0.9,0-1.8-0.3-2.5-1l-58.2-58.2c-1.4-1.4-1.4-3.6,0-4.9c1.4-1.4,3.6-1.4,4.9,0l58.2,58.2
	c1.4,1.4,1.4,3.6,0,4.9C113.4,192.1,112.5,192.4,111.6,192.4z"/>
<path class="st4" d="M209.1,369.6c-0.9,0-1.8-0.3-2.5-1l-38.6-38.6c-1.4-1.4-1.4-3.6,0-4.9c1.4-1.4,3.6-1.4,4.9,0l38.6,38.6
	c1.4,1.4,1.4,3.6,0,4.9C210.9,369.2,210,369.6,209.1,369.6z"/>
<path class="st4" d="M105.1,265.6c-0.9,0-1.8-0.3-2.5-1l-48.8-48.8c-1.4-1.4-1.4-3.6,0-4.9c1.4-1.4,3.6-1.4,4.9,0l48.8,48.8
	c1.4,1.4,1.4,3.6,0,4.9C106.9,265.2,106,265.6,105.1,265.6z"/>
<path class="st4" d="M366.5,212.2c-0.9,0-1.8-0.4-2.5-1.1l-38-39.2c-1.3-1.4-1.3-3.6,0.1-4.9s3.6-1.3,4.9,0.1l38,39.2
	c1.3,1.4,1.3,3.6-0.1,4.9C368.2,211.9,367.4,212.2,366.5,212.2z"/>
<path class="st4" d="M264.1,106.5c-0.9,0-1.8-0.4-2.5-1.1l-22.7-23.4c-1.3-1.4-1.3-3.6,0.1-4.9c1.4-1.3,3.6-1.3,4.9,0.1l22.7,23.4
	c1.3,1.4,1.3,3.6-0.1,4.9C265.9,106.2,265,106.5,264.1,106.5z"/>
<path class="st4" d="M225.7,67.7c-0.9,0-1.8-0.3-2.5-1l-8.6-8.6c-1.4-1.4-1.4-3.6,0-4.9c1.4-1.4,3.6-1.4,4.9,0l8.6,8.6
	c1.4,1.4,1.4,3.6,0,4.9C227.5,67.4,226.6,67.7,225.7,67.7z"/>
</svg>
