<?xml version="1.0" encoding="utf-8"?>
<!-- Generator: Adobe Illustrator 26.2.1, SVG Export Plug-In . SVG Version: 6.00 Build 0)  -->
<svg version="1.1" id="Warstwa_1" xmlns="http://www.w3.org/2000/svg" xmlns:xlink="http://www.w3.org/1999/xlink" x="0px" y="0px"
	 viewBox="0 0 430 430" style="enable-background:new 0 0 430 430;" xml:space="preserve">
<style type="text/css">
	.st0{fill:#FFFFFF;}
	.st1{fill:#EBE6EF;}
	.st2{opacity:0.5;fill:#EBE6EF;}
	.st3{fill:#4BB3FD;}
	.st4{fill:#646E78;}
	.st5{opacity:0.5;fill:#646E78;}
	.st6{opacity:0.5;fill:#4BB3FD;}
	.st7{fill:#121331;}
	.st8{fill:none;stroke:#121331;stroke-width:7;stroke-linecap:round;stroke-linejoin:round;stroke-miterlimit:10;}
	.st9{fill:#F24C00;}
	.st10{fill:#F9C9C0;}
	.st11{fill:#92140C;}
	.st12{opacity:0.5;fill:#92140C;}
	.st13{fill:#3a3347;}
	.st14{fill:#2ca58d;}
	.st15{opacity:0.5;fill:#2ca58d;}
	.st16{opacity:0.5;fill:#F9C9C0;}
	.st17{fill:#ffc738;}
	.st18{opacity:0.5;fill:#ffc738;}
	.st19{fill:#B26836;}
	.st20{opacity:0.5;fill:#B26836;}
	.st21{opacity:0.5;fill:#3a3347;}
	.st22{opacity:0.5;}
	.st23{opacity:0.34;fill:#646E78;}
	.st24{opacity:0.5;fill:#F24C00;}
	.st25{fill:none;stroke:#4BB3FD;stroke-width:7;stroke-linecap:round;stroke-linejoin:round;stroke-miterlimit:10;}
	.st26{fill:#F28BA8;}
	.st27{opacity:0.5;fill:#F28BA8;}
	.st28{fill:none;}
</style>
<path class="st14" d="M215,163.5c-1.9,0-3.5-1.6-3.5-3.5v-25.1c0-1.9,1.6-3.5,3.5-3.5s3.5,1.6,3.5,3.5V160
	C218.5,161.9,216.9,163.5,215,163.5z"/>
<path class="st15" d="M215,163.5c-1.9,0-3.5-1.6-3.5-3.5v-25.1c0-1.9,1.6-3.5,3.5-3.5s3.5,1.6,3.5,3.5V160
	C218.5,161.9,216.9,163.5,215,163.5z"/>
<path class="st17" d="M284,269.1v26h35.4V102.2h33.8v192.8h32.4c1.7,0,3,1.3,3,3v74.1c0,1.7-1.3,3-3,3H44.5c-1.7,0-3-1.3-3-3v-74.1
	c0-1.7,1.3-3,3-3h32.4V102.2h33.8v192.8H146v-26H284z"/>
<path class="st18" d="M44.5,295.1H146v80.1H44.5c-1.7,0-3-1.3-3-3v-74.1C41.5,296.4,42.9,295.1,44.5,295.1z"/>
<path class="st18" d="M388.5,298.1v74.1c0,1.7-1.3,3-3,3H284v-80.1h101.5C387.1,295.1,388.5,296.4,388.5,298.1z"/>
<path class="st14" d="M285.5,250.2c0,6.5-0.5,12.8-1.6,18.9H146c-1-6.1-1.6-12.4-1.6-18.9c0-49.8,31.6-90.2,70.5-90.2
	S285.5,200.3,285.5,250.2z"/>
<path class="st15" d="M171.1,250.2c0,6.5,0.5,12.8,1.6,18.9H146c-1-6.1-1.6-12.4-1.6-18.9c0-49.8,31.6-90.2,70.5-90.2
	c4.6,0,9,0.6,13.3,1.6C195.7,169.5,171.1,206.1,171.1,250.2z"/>
<path class="st14" d="M115.5,102.2H72C65.4,93.5,84.5,67,91.4,57.9c1.2-1.6,3.6-1.6,4.8,0C103,67,122.1,93.5,115.5,102.2z"/>
<path class="st14" d="M358,102.2h-43.5c-6.6-8.8,12.5-35.3,19.4-44.3c1.2-1.6,3.6-1.6,4.8,0C345.5,67,364.5,93.5,358,102.2z"/>
<path class="st15" d="M88.2,102.2H72C65.4,93.5,84.5,67,91.4,57.9c1.2-1.6,3.6-1.6,4.8,0c1.5,1.9,3.5,4.7,5.7,7.9
	C93.7,77.5,83,95.3,88.2,102.2z"/>
<path class="st15" d="M330.6,102.2h-16.2c-6.6-8.8,12.5-35.3,19.4-44.3c1.2-1.6,3.6-1.6,4.8,0c1.5,1.9,3.5,4.7,5.7,7.9
	C336.1,77.5,325.4,95.4,330.6,102.2z"/>
<path class="st13" d="M189.6,375.1v-25.3c0-16.1,5.7-31.7,16.2-43.9l7-8.2c1.2-1.4,3.4-1.4,4.6,0l7,8.2
	c10.5,12.2,16.2,27.8,16.2,43.9v25.3H189.6z"/>
<path class="st21" d="M222.7,304.1l-1.6,1.8c-10.4,12.2-16.2,27.8-16.2,43.9v25.3h-15.4v-25.3c0-16.1,5.8-31.7,16.2-43.9l7-8.2
	c1.2-1.4,3.4-1.4,4.6,0L222.7,304.1z"/>
<path class="st13" d="M70.8,335.1v40h-7v-40c0-1.9,1.6-3.5,3.5-3.5C69.3,331.6,70.8,333.2,70.8,335.1z"/>
<path class="st13" d="M97.3,335.1v40h-7v-40c0-1.9,1.6-3.5,3.5-3.5C95.7,331.6,97.3,333.2,97.3,335.1z"/>
<path class="st13" d="M123.7,335.1v40h-7v-40c0-1.9,1.6-3.5,3.5-3.5C122.2,331.6,123.7,333.2,123.7,335.1z"/>
<path class="st13" d="M313.3,334.9v40c0,0.1,0,0.1,0,0.2h-7c0-0.1,0-0.1,0-0.2v-40c0-1.9,1.6-3.5,3.5-3.5
	C311.7,331.4,313.3,332.9,313.3,334.9z"/>
<path class="st13" d="M339.7,334.9v40c0,0.1,0,0.1,0,0.2h-7c0-0.1,0-0.1,0-0.2v-40c0-1.9,1.6-3.5,3.5-3.5
	C338.2,331.4,339.7,332.9,339.7,334.9z"/>
<path class="st13" d="M366.2,334.9v40c0,0.1,0,0.1,0,0.2h-7c0-0.1,0-0.1,0-0.2v-40c0-1.9,1.6-3.5,3.5-3.5
	C364.6,331.4,366.2,332.9,366.2,334.9z"/>
<path class="st17" d="M118,170H69.5c-1.9,0-3.5-1.6-3.5-3.5s1.6-3.5,3.5-3.5H118c1.9,0,3.5,1.6,3.5,3.5S120,170,118,170z"/>
<path class="st17" d="M118,234.3H69.5c-1.9,0-3.5-1.6-3.5-3.5s1.6-3.5,3.5-3.5H118c1.9,0,3.5,1.6,3.5,3.5S120,234.3,118,234.3z"/>
<path class="st17" d="M360.5,170H312c-1.9,0-3.5-1.6-3.5-3.5s1.6-3.5,3.5-3.5h48.5c1.9,0,3.5,1.6,3.5,3.5S362.4,170,360.5,170z"/>
<path class="st17" d="M360.5,234.3H312c-1.9,0-3.5-1.6-3.5-3.5s1.6-3.5,3.5-3.5h48.5c1.9,0,3.5,1.6,3.5,3.5S362.4,234.3,360.5,234.3
	z"/>
<path class="st18" d="M118,170H69.5c-1.9,0-3.5-1.6-3.5-3.5s1.6-3.5,3.5-3.5H118c1.9,0,3.5,1.6,3.5,3.5S120,170,118,170z"/>
<path class="st18" d="M118,234.3H69.5c-1.9,0-3.5-1.6-3.5-3.5s1.6-3.5,3.5-3.5H118c1.9,0,3.5,1.6,3.5,3.5S120,234.3,118,234.3z"/>
<path class="st18" d="M360.5,170H312c-1.9,0-3.5-1.6-3.5-3.5s1.6-3.5,3.5-3.5h48.5c1.9,0,3.5,1.6,3.5,3.5S362.4,170,360.5,170z"/>
<path class="st18" d="M360.5,234.3H312c-1.9,0-3.5-1.6-3.5-3.5s1.6-3.5,3.5-3.5h48.5c1.9,0,3.5,1.6,3.5,3.5S362.4,234.3,360.5,234.3
	z"/>
</svg>
