<?xml version="1.0" encoding="utf-8"?>
<!-- Generator: Adobe Illustrator 26.2.1, SVG Export Plug-In . SVG Version: 6.00 Build 0)  -->
<svg version="1.1" id="Warstwa_1" xmlns="http://www.w3.org/2000/svg" xmlns:xlink="http://www.w3.org/1999/xlink" x="0px" y="0px"
	 viewBox="0 0 430 430" style="enable-background:new 0 0 430 430;" xml:space="preserve">
<style type="text/css">
	.st0{fill:#FFFFFF;}
	.st1{fill:#EBE6EF;}
	.st2{opacity:0.5;fill:#EBE6EF;}
	.st3{fill:#4BB3FD;}
	.st4{fill:#646E78;}
	.st5{opacity:0.5;fill:#646E78;}
	.st6{opacity:0.5;fill:#4BB3FD;}
	.st7{fill:#121331;}
	.st8{fill:none;stroke:#121331;stroke-width:7;stroke-linecap:round;stroke-linejoin:round;stroke-miterlimit:10;}
	.st9{fill:#f24c00;}
	.st10{fill:#F9C9C0;}
	.st11{fill:#92140C;}
	.st12{opacity:0.5;fill:#92140C;}
	.st13{fill:#3A3347;}
	.st14{fill:#2ca58d;}
	.st15{opacity:0.5;fill:#2ca58d;}
	.st16{opacity:0.5;fill:#F9C9C0;}
	.st17{fill:#ffc738;}
	.st18{opacity:0.5;fill:#ffc738;}
	.st19{fill:#B26836;}
	.st20{opacity:0.5;fill:#B26836;}
	.st21{opacity:0.5;fill:#3A3347;}
	.st22{opacity:0.5;}
	.st23{opacity:0.34;fill:#646E78;}
	.st24{opacity:0.5;fill:#f24c00;}
	.st25{fill:none;stroke:#4BB3FD;stroke-width:7;stroke-linecap:round;stroke-linejoin:round;stroke-miterlimit:10;}
	.st26{fill:#F28BA8;}
	.st27{opacity:0.5;fill:#F28BA8;}
	.st28{fill:none;}
</style>
<path class="st17" d="M235.6,361.8H52.7c-1.6,0-3-1.3-3-3v-37h0.2V177.5c0-1.3,0.9-2.5,2.2-2.9c13.5-3.8,85.1-23.9,95.3-26.7
	c22.6-6.2,42.9,22.9,68.9,20.2c6.5-0.7,13.2-2.9,20.1-5.9c0,0,0.1,0,0.1,0c0,0,0.1,0,0.1,0c20.5-9.1,41.6-25.4,56.9-27.6
	c19.2-2.7,50.5,37,73.8,39.9c1.5,0.2,2.6,1.5,2.6,3v85.9h0.1v95.4c0,1.7-1.3,3-3,3H280"/>
<circle class="st9" cx="182.7" cy="81" r="39.7"/>
<path class="st18" d="M201.6,300.5c-38.1,11.7-84.4,24.1-151.8,24.6v-3.4h0.2V318c66.4-0.6,112-12.8,149.6-24.3
	c1.9-0.6,3.9,0.5,4.4,2.4C204.5,297.9,203.4,299.9,201.6,300.5z"/>
<path class="st18" d="M370,263.4v3.5c-22.7,0.3-44.1,2.2-65.2,5.8c-1.9,0.3-3.8-1-4.1-2.9c-0.3-1.9,1-3.8,2.9-4.1
	c21.5-3.7,43.3-5.6,66.3-5.9v3.7H370z"/>
<path class="st18" d="M236.2,162.3c-3.9,2.2-90.9,48.4-186.5,51.7v-36.5c0-1.3,0.9-2.5,2.2-2.9c13.5-3.8,85.1-23.9,95.3-26.7
	c22.6-6.2,42.9,22.9,68.9,20.2C222.7,167.5,229.4,165.3,236.2,162.3z"/>
<path class="st14" d="M235.6,291.1h-7.9c-14.1,0-25.5-11.4-25.5-25.5v-22.3c0-1.9,1.6-3.5,3.5-3.5s3.5,1.6,3.5,3.5v22.3
	c0,10.2,8.3,18.5,18.5,18.5h7.9c1.9,0,3.5,1.6,3.5,3.5S237.5,291.1,235.6,291.1z"/>
<path class="st14" d="M288.1,335.5h-7.9c-1.9,0-3.5-1.6-3.5-3.5s1.6-3.5,3.5-3.5h7.9c10.2,0,18.5-8.3,18.5-18.5v-13.3
	c0-1.9,1.6-3.5,3.5-3.5s3.5,1.6,3.5,3.5V310C313.6,324.1,302.2,335.5,288.1,335.5z"/>
<path class="st14" d="M280,250.8v111c-7.9,0-15.8,0-23.8,0c-6.9,0-13.7,0-20.6,0c0-37,0-74,0-111c0-6.1,2.5-11.7,6.5-15.7
	c4-4,9.6-6.5,15.7-6.5C270.1,228.6,280,238.5,280,250.8z"/>
<path class="st15" d="M265.9,230.1c-2.9,1.1-5.4,2.8-7.6,5c-4,4-6.5,9.6-6.5,15.7v111h-16.2v-111c0-6.1,2.5-11.7,6.5-15.7
	c4-4,9.6-6.5,15.7-6.5C260.7,228.6,263.4,229.1,265.9,230.1z"/>
</svg>
