<?xml version="1.0" encoding="utf-8"?>
<!-- Generator: Adobe Illustrator 26.2.1, SVG Export Plug-In . SVG Version: 6.00 Build 0)  -->
<svg version="1.1" id="Warstwa_1" xmlns="http://www.w3.org/2000/svg" xmlns:xlink="http://www.w3.org/1999/xlink" x="0px" y="0px"
	 viewBox="0 0 430 430" style="enable-background:new 0 0 430 430;" xml:space="preserve">
<style type="text/css">
	.st0{fill:#FFFFFF;}
	.st1{fill:#EBE6EF;}
	.st2{opacity:0.5;fill:#EBE6EF;}
	.st3{fill:#4BB3FD;}
	.st4{fill:#646E78;}
	.st5{opacity:0.5;fill:#646E78;}
	.st6{opacity:0.5;fill:#4BB3FD;}
	.st7{fill:#121331;}
	.st8{fill:none;stroke:#121331;stroke-width:7;stroke-linecap:round;stroke-linejoin:round;stroke-miterlimit:10;}
	.st9{fill:#f24c00;}
	.st10{fill:#F9C9C0;}
	.st11{fill:#92140C;}
	.st12{opacity:0.5;fill:#92140C;}
	.st13{fill:#3A3347;}
	.st14{fill:#2CA58D;}
	.st15{opacity:0.5;fill:#2CA58D;}
	.st16{opacity:0.5;fill:#F9C9C0;}
	.st17{fill:#ffc738;}
	.st18{opacity:0.5;fill:#ffc738;}
	.st19{fill:#B26836;}
	.st20{opacity:0.5;fill:#B26836;}
	.st21{opacity:0.5;fill:#3A3347;}
	.st22{opacity:0.5;}
	.st23{opacity:0.34;fill:#646E78;}
	.st24{opacity:0.5;fill:#f24c00;}
	.st25{fill:none;stroke:#4BB3FD;stroke-width:7;stroke-linecap:round;stroke-linejoin:round;stroke-miterlimit:10;}
	.st26{fill:#F28BA8;}
	.st27{opacity:0.5;fill:#F28BA8;}
	.st28{fill:none;}
</style>
<path class="st9" d="M255,141.3c0,17.4-7.4,33-19.1,44c-4,3.6-10.6,8.4-19.7,11.9c-13.1,4.9-24.6,4.4-30.6,3.6
	c-4.7-0.7-22.4-4.1-36.3-20.1c-9.1-10.6-14.7-24.3-14.7-39.4c0-33.2,27-60.2,60.2-60.2C228,81.1,255,108.1,255,141.3z"/>
<path class="st17" d="M289.7,281.9l35-62.7c1.1-2.1,4.1-2.1,5.2,0l29.4,52.8l40.1,71.9c1.1,2-0.3,4.5-2.6,4.5H33.3
	c-2.3,0-3.7-2.5-2.6-4.5l24.2-43.4l45.3-81.3c1.1-2.1,4.1-2.1,5.2,0l35,62.7"/>
<path class="st18" d="M399.3,343.9c1.1,2-0.3,4.5-2.6,4.5h-70c-24.5,0-71.7,0-71.7,0s27-51.3,34.7-66.4c11.7-20.9,23.3-41.8,35-62.7
	c1.1-2.1,4.1-2.1,5.2,0l27.6,49.6l1.8,3.2l1.9,3.4l17.2,30.9l3.5,6.3L399.3,343.9z"/>
<path class="st18" d="M174.5,348.3c0,0-44.3,0-71.1,0H33.3c-2.3,0-3.7-2.5-2.6-4.5l22.4-40.2l1.8-3.2l1.8-3.2l43.5-78
	c1.1-2.1,4.1-2.1,5.2,0l35,62.7C150.6,302.2,174.5,348.3,174.5,348.3z"/>
<path class="st17" d="M326.7,348.3H103.4l37-66.4l45.1-81l26.9-48.2c0.4-0.8,1.1-1.2,1.8-1.4c0.6-0.2,1.2-0.1,1.8,0.1
	c0.7,0.2,1.2,0.7,1.6,1.4l18.2,32.7l53.8,96.6L326.7,348.3z"/>
<path class="st18" d="M216,151.3l-14.8,197.1h-35.7l48.7-197.1C214.8,151,215.4,151.1,216,151.3z"/>
<path class="st17" d="M88.5,300.7c0,1.9-1.6,3.5-3.5,3.5H54.9c-0.7,0-1.3-0.2-1.8-0.5l1.8-3.2l1.8-3.2H85
	C86.9,297.2,88.5,298.8,88.5,300.7z"/>
<path class="st17" d="M361.1,275.3c-0.5,0.3-1.1,0.4-1.6,0.4h-30.1c-1.9,0-3.5-1.6-3.5-3.5c0-1.9,1.6-3.5,3.5-3.5h28.1l1.8,3.2
	L361.1,275.3z"/>
<path class="st17" d="M381.9,312.5c-0.6,0.5-1.3,0.7-2.1,0.7h-19.1c-1.9,0-3.5-1.6-3.5-3.5c0-1.9,1.6-3.5,3.5-3.5h17.8L381.9,312.5z
	"/>
</svg>
