<?xml version="1.0" encoding="utf-8"?>
<!-- Generator: Adobe Illustrator 24.0.2, SVG Export Plug-In . SVG Version: 6.00 Build 0)  -->
<svg version="1.1" id="Warstwa_1" xmlns="http://www.w3.org/2000/svg" xmlns:xlink="http://www.w3.org/1999/xlink" x="0px" y="0px"
	 viewBox="0 0 430 430" style="enable-background:new 0 0 430 430;" xml:space="preserve">
<style type="text/css">
	.st0{fill:#3a3347;}
	.st1{display:none;}
	.st2{display:inline;fill:none;stroke:#121331;stroke-width:7;stroke-linecap:round;stroke-linejoin:round;}
	.st3{display:none;fill:none;stroke:#121331;stroke-width:7;stroke-linecap:round;stroke-linejoin:round;stroke-miterlimit:10;}
	.st4{fill:#EBE6EF;}
	.st5{opacity:0.5;}
	.st6{fill:#4bb3fd;}
	.st7{fill:#121331;}
	.st8{fill:#181730;}
	.st9{fill:#F9C9C0;}
	.st10{opacity:0.4;}
	.st11{fill:#646E78;}
	.st12{fill:#A3A2A2;}
	.st13{fill:#FFC738;}
	.st14{fill:#2CA58D;}
	.st15{opacity:0.6;}
	.st16{fill:#F28BA8;}
	.st17{fill:#08A88A;}
	.st18{fill:#B26836;}
	.st19{fill:#d1faf0;}
	.st20{fill:#F24C00;}
	.st21{fill:none;stroke:#F9C9C0;stroke-width:12;stroke-linecap:square;stroke-linejoin:round;}
	.st22{opacity:0.3;}
	.st23{opacity:0.85;}
	.st24{fill:#FFFFFF;}
	.st25{fill:none;stroke:#121331;stroke-width:7;stroke-linecap:round;stroke-linejoin:round;stroke-miterlimit:10;}
	.st26{opacity:0.8;}
</style>
<g class="st1">
	<path class="st2" d="M152.5,96L36,56.5l0.5,278L153,374L152.5,96z"/>
	<path class="st2" d="M393.5,96L277,56.5l0.5,278L394,374L393.5,96z"/>
	<path class="st2" d="M153,95.5L277,56l0.5,278l-124,39.5L153,95.5z"/>
</g>
<g>
	<g>
		<g>
			<circle class="st6" cx="127.24" cy="214.88" r="65.58"/>
		</g>
		<g class="st10">
			<path class="st4" d="M189.22,236.32c-0.21,0.6-0.42,1.18-0.64,1.77c-4.63,12.2-12.79,22.67-23.24,30.14
				c-0.06,0.04-0.11,0.08-0.17,0.12L84.62,165.11c0.05-0.05,0.1-0.09,0.16-0.14c9.44-8.05,21.21-13.47,34.14-15.11
				c0.62-0.08,1.25-0.15,1.88-0.21l6.37,8.07l0.09,0.11L189.22,236.32z"/>
		</g>
		<g class="st10">
			<path class="st4" d="M153.34,275.02c-5.17,2.26-10.68,3.86-16.44,4.71c-0.65,0.1-1.3,0.18-1.95,0.26l-7.69-9.72L65.67,192.4
				c0.23-0.62,0.46-1.23,0.7-1.83c2.21-5.52,5.14-10.66,8.69-15.32l74.53,94.4L153.34,275.02z"/>
		</g>
	</g>
	<g>
		<g>
			<circle class="st6" cx="302.8" cy="214.88" r="65.58"/>
		</g>
		<g class="st10">
			<path class="st4" d="M364.78,236.32c-0.21,0.6-0.42,1.18-0.64,1.77c-4.63,12.2-12.79,22.67-23.24,30.14
				c-0.06,0.04-0.11,0.08-0.17,0.12l-80.54-103.24c0.05-0.05,0.1-0.09,0.16-0.14c9.44-8.05,21.21-13.47,34.14-15.11
				c0.62-0.08,1.25-0.15,1.88-0.21l6.37,8.07l0.09,0.11L364.78,236.32z"/>
		</g>
		<g class="st10">
			<path class="st4" d="M328.9,275.02c-5.17,2.26-10.68,3.86-16.44,4.71c-0.65,0.1-1.3,0.18-1.95,0.26l-7.69-9.72l-61.59-77.86
				c0.23-0.62,0.46-1.23,0.7-1.83c2.21-5.52,5.14-10.66,8.69-15.32l74.53,94.4L328.9,275.02z"/>
		</g>
	</g>
	<g>
		<path class="st0" d="M302.8,284.2c-38.16,0-69.2-31.04-69.2-69.2c0-4.81,0.49-9.51,1.43-14.05c-4.86-5.81-11.91-9.11-19.55-9.11
			c-8.05,0-15.57,3.77-20.39,10.15c0.8,4.21,1.23,8.56,1.23,13.01c0,38.16-31.04,69.2-69.2,69.2c-36.27,0-66.12-28.05-68.98-63.6
			h-14c-1.93,0-3.5-1.57-3.5-3.5s1.57-3.5,3.5-3.5h13.79c0.75-37.51,31.5-67.8,69.19-67.8c30.78,0,56.93,20.2,65.89,48.04
			c5.99-5.72,14-9,22.47-9c8.02,0,15.75,3.01,21.67,8.27c9.18-27.46,35.14-47.31,65.65-47.31c37.69,0,68.44,30.29,69.19,67.8h13.87
			c1.93,0,3.5,1.57,3.5,3.5s-1.57,3.5-3.5,3.5h-14.08C368.92,256.15,339.07,284.2,302.8,284.2z M302.8,152.8
			c-34.3,0-62.2,27.9-62.2,62.2s27.9,62.2,62.2,62.2c33.32,0,60.6-26.34,62.13-59.28c-0.06-0.26-0.1-0.54-0.1-0.82
			c0-0.36,0.05-0.7,0.15-1.03c0.01-0.36,0.01-0.71,0.01-1.07C365,180.7,337.1,152.8,302.8,152.8z M65,218.15
			c1.65,32.84,28.88,59.05,62.12,59.05c34.3,0,62.2-27.9,62.2-62.2s-27.9-62.2-62.2-62.2c-34.3,0-62.2,27.9-62.2,62.2
			c0,0.28,0,0.56,0.01,0.84c0.15,0.39,0.23,0.82,0.23,1.26C65.16,217.47,65.11,217.82,65,218.15z"/>
	</g>
</g>
</svg>
