<?xml version="1.0" encoding="utf-8"?>
<!-- Generator: Adobe Illustrator 25.2.0, SVG Export Plug-In . SVG Version: 6.00 Build 0)  -->
<svg version="1.1" id="Warstwa_1" xmlns="http://www.w3.org/2000/svg" xmlns:xlink="http://www.w3.org/1999/xlink" x="0px" y="0px"
	 viewBox="0 0 430 430" style="enable-background:new 0 0 430 430;" xml:space="preserve">
<style type="text/css">
	.st0{fill:#121331;}
	.st1{fill:#F24C00;}
	.st2{opacity:0.5;fill:#F24C00;}
	.st3{fill:#92140C;}
	.st4{fill:#4bb3fd;}
	.st5{fill:#3A3347;}
	.st6{fill:#ebe6ef;}
	.st7{fill:#646E78;}
	.st8{opacity:0.5;fill:#ebe6ef;}
	.st9{opacity:0.5;fill:#3A3347;}
	.st10{fill:#FFC738;}
	.st11{fill:#B26836;}
	.st12{fill:#F28BA8;}
	.st13{opacity:0.5;fill:#F28BA8;}
	.st14{opacity:0.5;fill:#B26836;}
	.st15{opacity:0.5;fill:#646E78;}
	.st16{opacity:0.5;fill:#4bb3fd;}
	.st17{fill:#2CA58D;}
	.st18{opacity:0.5;fill:#2CA58D;}
	.st19{opacity:0.5;fill:#FFC738;}
	.st20{fill:#F9C9C0;}
	.st21{fill:none;stroke:#121331;stroke-width:7;stroke-linecap:round;stroke-linejoin:round;stroke-miterlimit:10;}
	.st22{opacity:0.5;}
	.st23{opacity:0.2;fill:#2CA58D;}
	.st24{fill:none;stroke:#F24C00;stroke-width:10;stroke-linecap:round;stroke-linejoin:round;stroke-miterlimit:10;}
	.st25{fill:none;stroke:#2CA58D;stroke-width:10;stroke-linecap:round;stroke-linejoin:round;stroke-miterlimit:10;}
	.st26{fill:none;stroke:#121331;stroke-width:10;stroke-linecap:round;stroke-linejoin:round;stroke-miterlimit:10;}
	.st27{fill:none;stroke:#ebe6ef;stroke-width:7;stroke-linecap:round;stroke-linejoin:round;stroke-miterlimit:10;}
</style>
<path class="st4" d="M381.05,215c0,1.17-0.01,2.33-0.04,3.5c-0.99,48.1-22.44,91.18-56,120.89c-1.82,1.61-3.67,3.18-5.56,4.71
	c-21.34,17.29-47.06,29.39-75.24,34.39c-9.48,1.68-19.24,2.56-29.21,2.56c-9.45,0-18.72-0.79-27.74-2.31
	c-28.74-4.83-54.98-17.05-76.69-34.64c-1.89-1.52-3.74-3.09-5.56-4.71c-33.57-29.7-55.03-72.78-56.02-120.89
	c-0.03-1.17-0.04-2.33-0.04-3.5c0-1.17,0.01-2.33,0.04-3.5c0.99-48.1,22.44-91.18,56.01-120.89c1.82-1.61,3.68-3.18,5.57-4.72
	c21.7-17.58,47.93-29.79,76.67-34.63c9.02-1.52,18.3-2.31,27.76-2.31c9.97,0,19.73,0.88,29.21,2.56c28.17,5,53.89,17.1,75.23,34.39
	c1.89,1.53,3.75,3.1,5.57,4.71c33.56,29.71,55.01,72.79,56,120.89C381.04,212.67,381.05,213.83,381.05,215z"/>
<path class="st6" d="M381.01,218.5c0.03-1.17,0.04-2.33,0.04-3.5c0-1.17-0.01-2.33-0.04-3.5h-56.82
	c-0.52-40.4-10.07-78.48-27.15-108.57c9.51-3.27,18.55-7.1,26.94-11.49c0.4-0.21,0.75-0.5,1.03-0.83c-1.82-1.61-3.68-3.18-5.57-4.71
	c-8.13,4.17-16.87,7.79-26.06,10.89c-0.22-0.36-0.45-0.73-0.67-1.09c-13.62-21.39-30.28-36.44-48.5-44.19
	c-9.48-1.68-19.24-2.56-29.21-2.56c-9.46,0-18.74,0.79-27.76,2.31c-4.49,1.93-8.89,4.33-13.17,7.18
	c-12.77,8.52-24.46,21.09-34.46,37.3c-0.34,0.57-0.68,1.14-1.02,1.7c-9.91-3.22-19.31-7.08-28.02-11.55
	c-1.89,1.54-3.75,3.11-5.57,4.72c0.27,0.33,0.62,0.62,1.03,0.83c9.01,4.71,18.75,8.78,29.02,12.19
	c-16.3,29.97-25.42,67.78-25.92,107.87H48.99c-0.03,1.17-0.04,2.33-0.04,3.5c0,1.17,0.01,2.33,0.04,3.5h60.14
	c0.5,40.08,9.62,77.89,25.92,107.86c-10.27,3.42-20.02,7.49-29.02,12.2c-0.41,0.22-0.76,0.5-1.02,0.83
	c1.82,1.62,3.67,3.19,5.56,4.71c8.7-4.47,18.1-8.33,28.02-11.55c0.34,0.56,0.68,1.14,1.02,1.7c13.36,21.65,29.73,36.81,47.65,44.49
	c9.02,1.52,18.29,2.31,27.74,2.31c9.97,0,19.73-0.88,29.21-2.56c4.42-1.88,8.75-4.19,12.96-6.92c13.16-8.51,25.22-21.08,35.54-37.28
	c0.22-0.35,0.44-0.72,0.66-1.07c9.19,3.09,17.94,6.71,26.08,10.88c1.89-1.53,3.74-3.1,5.56-4.71c-0.27-0.33-0.62-0.62-1.03-0.83
	c-8.39-4.39-17.44-8.22-26.94-11.48c17.07-30.09,26.63-68.18,27.15-108.58H381.01z M211.52,52.56c0.05,9.36,0.1,17.79,0.15,25.88
	c0.06,10.21,0.12,20,0.17,30.63c-23.12-0.27-45.74-3.54-66.39-9.51C162.56,71.7,185.81,54.03,211.52,52.56z M211.53,377.44
	c-25.72-1.47-48.97-19.15-66.09-47c20.66-5.98,43.3-9.24,66.44-9.51C211.78,346.98,211.65,364.61,211.53,377.44z M211.91,313.93
	c-24.43,0.27-48.33,3.83-70.09,10.3c-15.53-28.08-25.17-65.1-25.69-105.73h95.92C212.05,258.71,211.99,289.7,211.91,313.93z
	 M116.13,211.5c0.52-40.64,10.16-77.66,25.69-105.74c21.76,6.48,45.65,10.03,70.05,10.31c0.11,23.1,0.18,51.07,0.18,95.43H116.13z
	 M286.51,98.97c-20.97,6.28-44.04,9.75-67.67,10.09c-0.05-10.64-0.11-20.44-0.17-30.66c-0.05-8.08-0.1-16.5-0.15-25.85
	C244.94,53.98,268.85,71.43,286.51,98.97z M218.53,377.44c0.12-12.83,0.25-30.47,0.35-56.5c23.6,0.34,46.66,3.82,67.62,10.1
	C268.84,358.56,244.94,376,218.53,377.44z M290.26,324.87c-22.08-6.8-46.44-10.57-71.35-10.93c0.08-24.23,0.14-55.23,0.14-95.44
	h98.14C316.64,259.45,306.53,296.72,290.26,324.87z M219.05,211.5c0-44.36-0.07-72.34-0.18-95.44c24.94-0.35,49.32-4.12,71.4-10.92
	c16.26,28.15,26.37,65.41,26.92,106.36H219.05z"/>
<path class="st16" d="M215,381.05c-91.7,0-166.05-74.34-166.05-166.05S123.3,48.95,215,48.95c-34.47,0-62.41,74.34-62.41,166.05
	S180.53,381.05,215,381.05z"/>
</svg>
