<?xml version="1.0" encoding="utf-8"?>
<!-- Generator: Adobe Illustrator 24.0.2, SVG Export Plug-In . SVG Version: 6.00 Build 0)  -->
<svg version="1.1" xmlns="http://www.w3.org/2000/svg" xmlns:xlink="http://www.w3.org/1999/xlink" x="0px" y="0px"
	 viewBox="0 0 24 24" style="enable-background:new 0 0 24 24;" xml:space="preserve">
<style type="text/css">
	.st0{fill:none;}
	.st1{fill:#121331;}
</style>
<g id="bounding_box">
	<rect x="0" y="0" class="st0" width="24" height="24"/>
</g>
<g id="design">
	<g>
		<path class="st1" d="M15.25,4h-6.5C5.03,4,2,7.03,2,10.75v8.5C2,19.66,2.34,20,2.75,20h12.5c3.72,0,6.75-3.03,6.75-6.75v-2.5
			C22,7.03,18.97,4,15.25,4z M8.88,12.89c-0.06,0.05-0.12,0.1-0.19,0.15c-0.07,0.04-0.14,0.08-0.21,0.12
			c-0.08,0.03-0.16,0.05-0.24,0.07C8.16,13.24,8.08,13.25,8,13.25c-0.33,0-0.65-0.13-0.88-0.36C6.88,12.65,6.75,12.33,6.75,12
			c0-0.33,0.13-0.65,0.37-0.89c0.46-0.46,1.3-0.46,1.76,0c0.24,0.24,0.37,0.56,0.37,0.89C9.25,12.33,9.12,12.65,8.88,12.89z
			 M13.23,12.24c-0.02,0.08-0.04,0.16-0.08,0.24c-0.03,0.07-0.07,0.15-0.11,0.21c-0.05,0.07-0.1,0.14-0.16,0.19
			c-0.23,0.24-0.55,0.37-0.88,0.37s-0.65-0.13-0.88-0.37c-0.06-0.05-0.11-0.12-0.16-0.19c-0.05-0.06-0.08-0.14-0.11-0.21
			c-0.04-0.08-0.06-0.16-0.08-0.24c-0.01-0.08-0.02-0.16-0.02-0.24c0-0.08,0.01-0.16,0.02-0.24c0.02-0.08,0.04-0.16,0.08-0.24
			c0.03-0.07,0.06-0.15,0.11-0.21c0.05-0.07,0.1-0.14,0.16-0.19c0.46-0.47,1.29-0.47,1.76,0c0.06,0.05,0.11,0.12,0.16,0.19
			c0.04,0.06,0.08,0.14,0.11,0.21c0.04,0.08,0.06,0.16,0.08,0.24c0.01,0.08,0.02,0.16,0.02,0.24
			C13.25,12.08,13.24,12.16,13.23,12.24z M16.88,12.88c-0.23,0.24-0.55,0.37-0.88,0.37s-0.65-0.13-0.88-0.37
			c-0.24-0.23-0.37-0.55-0.37-0.88c0-0.33,0.13-0.65,0.37-0.88c0.46-0.47,1.3-0.47,1.76,0c0.24,0.23,0.37,0.55,0.37,0.88
			C17.25,12.33,17.12,12.65,16.88,12.88z"/>
	</g>
</g>
</svg>
