<svg xmlns="http://www.w3.org/2000/svg" viewBox="0 0 430 430">
  <defs>
    <style>
      .cls-1 {
        isolation: isolate;
      }

      .cls-2 {
        fill: #f24c00;
      }

      .cls-3 {
        fill: #ebe6ef;
      }

      .cls-4 {
        fill: #ebe6f0;
      }

      .cls-5 {
        mix-blend-mode: multiply;
        opacity: 0.5;
      }
    </style>
  </defs>
  <g class="cls-1">
    <g id="Warstwa_1" data-name="Warstwa 1">
      <g>
        <path class="cls-2" d="M215,44.54A170.46,170.46,0,1,0,385.46,215,170.46,170.46,0,0,0,215,44.54Zm0,282.86A112.4,112.4,0,1,1,327.4,215,112.4,112.4,0,0,1,215,327.4Z"/>
        <g>
          <path class="cls-3" d="M319.18,257.45a112.4,112.4,0,0,0-.55-86l53.5-22.57A170.51,170.51,0,0,1,373,279.34Z"/>
          <path class="cls-4" d="M373,279.5l-.11-.05L319,257.52l.05-.11a112.35,112.35,0,0,0-.54-85.93l0-.12.11-.05L372.2,148.7l.05.12a170.71,170.71,0,0,1,.83,130.56Zm-53.69-22.12,53.55,21.79A170.44,170.44,0,0,0,372.07,149L318.8,171.5a112.59,112.59,0,0,1,.54,85.88Z"/>
        </g>
        <g>
          <path class="cls-3" d="M257.45,110.82a112.4,112.4,0,0,0-86,.55l-22.57-53.5A170.51,170.51,0,0,1,279.34,57Z"/>
          <path class="cls-4" d="M171.36,111.53l-.05-.11L148.7,57.8l.12,0A170,170,0,0,1,214,44.35h1.1a169.69,169.69,0,0,1,64.26,12.57l.12,0-.05.11L257.52,111l-.11,0a111.82,111.82,0,0,0-42.32-8.27h-.7a111.61,111.61,0,0,0-42.91,8.81ZM149,57.94,171.5,111.2a111.85,111.85,0,0,1,42.89-8.78h.7a112,112,0,0,1,42.29,8.24l21.79-53.55a169.41,169.41,0,0,0-64-12.51H214A169.53,169.53,0,0,0,149,57.94Z"/>
        </g>
        <g>
          <path class="cls-3" d="M110.82,172.55a112.4,112.4,0,0,0,.55,86l-53.5,22.57A170.51,170.51,0,0,1,57,150.66Z"/>
          <path class="cls-4" d="M57.8,281.3l0-.12a170.59,170.59,0,0,1-.83-130.56l0-.12.12.05L111,172.48l0,.11a112.35,112.35,0,0,0,.54,85.93l0,.12-.11.05Zm-.69-130.47A170.32,170.32,0,0,0,57.93,281L111.2,258.5a112.59,112.59,0,0,1-.54-85.88Z"/>
        </g>
        <g>
          <path class="cls-3" d="M172.55,319.18a112.4,112.4,0,0,0,86-.55l22.57,53.5a170.51,170.51,0,0,1-130.48.83Z"/>
          <path class="cls-4" d="M214.88,385.65a169.69,169.69,0,0,1-64.26-12.57l-.12-.05.05-.11L172.48,319l.12.05a111.73,111.73,0,0,0,42.31,8.27h.7a111.61,111.61,0,0,0,42.91-8.81l.12,0,0,.11L281.3,372.2l-.12.05a170,170,0,0,1-65.2,13.4Zm-64-12.76a169.41,169.41,0,0,0,64,12.51H216a169.53,169.53,0,0,0,65-13.34L258.5,318.8a111.85,111.85,0,0,1-42.89,8.78h-.7a112,112,0,0,1-42.29-8.24Z"/>
        </g>
        <g class="cls-5">
          <path class="cls-3" d="M73.68,215A170.46,170.46,0,0,1,229.54,45.17c-4.81-.41-9.68-.63-14.6-.63a170.46,170.46,0,0,0,0,340.92c4.92,0,9.79-.22,14.6-.63A170.46,170.46,0,0,1,73.68,215Z"/>
        </g>
      </g>
    </g>
  </g>
</svg>
