<svg xmlns="http://www.w3.org/2000/svg" viewBox="0 0 430 430">
  <defs>
    <style>
      .cls-1 {
        isolation: isolate;
      }

      .cls-2, .cls-3 {
        fill: #ebe6ef;
      }

      .cls-3 {
        mix-blend-mode: multiply;
        opacity: 0.5;
      }

      .cls-4 {
        fill: #646e78;
      }

      .cls-5 {
        fill: #08a88a;
      }
    </style>
  </defs>
  <g class="cls-1">
    <g id="Warstwa_1" data-name="Warstwa 1">
      <g>
        <path class="cls-2" d="M324.65,111,265.31,51.64a3.54,3.54,0,0,0-2.48-1h-155a3.5,3.5,0,0,0-3.5,3.5V375.88a3.5,3.5,0,0,0,3.5,3.5H322.17a3.5,3.5,0,0,0,3.5-3.5V113.46A3.45,3.45,0,0,0,324.65,111Z"/>
        <path class="cls-3" d="M325.66,113.45a3.47,3.47,0,0,0-1-2.46L265.31,51.64a3.51,3.51,0,0,0-2.47-1H242.06v81a2,2,0,0,0,2,2h81.61V113.46Z"/>
        <path class="cls-4" d="M325.67,113.47a3.5,3.5,0,0,0-1-2.48L265.31,51.64a3.49,3.49,0,0,0-2.49-1h-3.49v62.84a3.5,3.5,0,0,0,3.5,3.5h62.84v-3.5Z"/>
        <path class="cls-5" d="M286.21,316.73H148.73a3.5,3.5,0,0,1,0-7H286.21a3.5,3.5,0,1,1,0,7Z"/>
        <path class="cls-5" d="M286.21,264.93H148.73a3.5,3.5,0,1,1,0-7H286.21a3.5,3.5,0,0,1,0,7Z"/>
        <path class="cls-5" d="M286.21,213.13H148.73a3.5,3.5,0,0,1,0-7H286.21a3.5,3.5,0,0,1,0,7Z"/>
        <path class="cls-5" d="M286.21,161.33H148.73a3.5,3.5,0,0,1,0-7H286.21a3.5,3.5,0,0,1,0,7Z"/>
      </g>
    </g>
  </g>
</svg>
