<?xml version="1.0" encoding="utf-8"?>
<!-- Generator: Adobe Illustrator 24.0.2, SVG Export Plug-In . SVG Version: 6.00 Build 0)  -->
<svg version="1.1" xmlns="http://www.w3.org/2000/svg" xmlns:xlink="http://www.w3.org/1999/xlink" x="0px" y="0px"
	 viewBox="0 0 24 24" style="enable-background:new 0 0 24 24;" xml:space="preserve">
<style type="text/css">
	.st0{fill:none;}
	.st1{fill:#121331;}
</style>
<g id="bounding_box">
	<rect x="0" y="0" class="st0" width="24" height="24"/>
</g>
<g id="design">
	<g>
		<path class="st1" d="M21,14.93v3.3c0,0.8-0.35,1.56-0.95,2.09C19.54,20.76,18.89,21,18.22,21c-0.13,0-0.26-0.01-0.38-0.03
			C10.18,19.91,4.09,13.82,3.03,6.16c-0.11-0.8,0.13-1.6,0.65-2.21C4.21,3.35,4.97,3,5.77,3h3.3c0.85,0,1.58,0.61,1.73,1.45
			l0.39,2.2c0.18,1.05-0.26,2.12-1.13,2.74l-1.3,1.12c1.22,1.88,2.84,3.5,4.75,4.72l1.15-1.34c0.57-0.82,1.65-1.26,2.69-1.08
			l2.2,0.39C20.39,13.35,21,14.08,21,14.93z"/>
	</g>
</g>
</svg>
