<?xml version="1.0" encoding="utf-8"?>
<!-- Generator: Adobe Illustrator 26.0.2, SVG Export Plug-In . SVG Version: 6.00 Build 0)  -->
<svg version="1.1" id="Warstwa_3" xmlns="http://www.w3.org/2000/svg" xmlns:xlink="http://www.w3.org/1999/xlink" x="0px" y="0px"
	 viewBox="0 0 430 430" style="enable-background:new 0 0 430 430;" xml:space="preserve">
<style type="text/css">
	.st0{fill:#F9C9C0;}
	.st1{fill:#3a3347;}
	.st2{fill:#646e78;}
	.st3{opacity:0.5;fill:#646e78;}
	.st4{fill:#121331;}
	.st5{fill:#92140C;}
	.st6{fill:#ffc738;}
	.st7{fill:#EBE6EF;}
	.st8{opacity:0.5;fill:#EBE6EF;}
	.st9{opacity:0.5;fill:#3a3347;}
	.st10{opacity:0.5;fill:#ffc738;}
	.st11{opacity:0.5;}
	.st12{fill:#4BB3FD;}
	.st13{opacity:0.5;fill:#4BB3FD;}
	.st14{fill:#B26836;}
	.st15{fill:#2CA58D;}
	.st16{opacity:0.5;fill:#2CA58D;}
	.st17{fill:#F24C00;}
	.st18{opacity:0.5;fill:#F24C00;}
	.st19{fill:none;stroke:#121331;stroke-width:7;stroke-linecap:round;stroke-linejoin:round;stroke-miterlimit:10;}
	.st20{opacity:0.5;fill:#92140C;}
	.st21{opacity:0.5;fill:#F9C9C0;}
	.st22{opacity:0.5;fill:#B26836;}
	.st23{fill:#F28BA8;}
	.st24{opacity:0.5;fill:#F28BA8;}
	.st25{fill-opacity:0;}
</style>
<path class="st1" d="M279.47,186.35H157.44c-1.93,0-3.5-1.57-3.5-3.5v-38.09c0-32.43,26.38-58.81,58.81-58.81h11.41
	c32.43,0,58.81,26.38,58.81,58.81v38.09C282.97,184.78,281.4,186.35,279.47,186.35z M160.94,179.35h115.03v-34.59
	c0-28.57-23.24-51.81-51.81-51.81h-11.41c-28.57,0-51.81,23.24-51.81,51.81V179.35z"/>
<path class="st2" d="M307.56,350.79H129.47c-6.6,0-12-5.4-12-12V190.76c0-6.6,5.4-12,12-12h178.09c6.6,0,12,5.4,12,12v148.03
	C319.56,345.39,314.16,350.79,307.56,350.79z"/>
<path class="st3" d="M144.86,350.8h-15.27c-6.6,0-12-5.4-12-12V190.77c0-6.6,5.4-12,12-12h15.26c-0.14,0.74-0.21,1.51-0.21,2.29
	V348.5C144.64,349.29,144.71,350.06,144.86,350.8z"/>
<g>
	<path class="st6" d="M220.19,305.1c-11.2,0-22.11-5.23-29.27-14.25c-1.2-1.52-0.95-3.72,0.57-4.92c1.52-1.2,3.72-0.95,4.92,0.57
		c6.5,8.2,17.25,12.66,27.4,11.38c4.39-0.56,8.19-2.08,10.98-4.39c3.01-2.49,4.86-6.01,4.95-9.42c0.25-10.09-7.82-13.05-21.12-16.73
		c-11.75-3.25-26.36-7.29-24.64-23.51c0.86-8.07,7.06-15.31,15.44-18.03c13.23-4.29,28.82,2.1,36.28,14.86
		c0.98,1.67,0.41,3.81-1.25,4.79c-1.67,0.98-3.81,0.41-4.79-1.25c-5.74-9.82-18.07-14.98-28.07-11.73
		c-5.7,1.85-10.08,6.83-10.64,12.11c-1.04,9.82,6.75,12.48,19.54,16.02c11.88,3.28,26.65,7.37,26.26,23.65
		c-0.13,5.41-2.93,10.88-7.48,14.64c-3.82,3.16-8.86,5.21-14.56,5.94C223.19,305.01,221.69,305.1,220.19,305.1z"/>
	<path class="st6" d="M218.46,323.02c-1.93,0-3.5-1.57-3.5-3.5v-17.98c0-1.93,1.57-3.5,3.5-3.5s3.5,1.57,3.5,3.5v17.98
		C221.96,321.46,220.39,323.02,218.46,323.02z"/>
	<path class="st6" d="M218.46,231.48c-1.93,0-3.5-1.57-3.5-3.5v-17.94c0-1.93,1.57-3.5,3.5-3.5s3.5,1.57,3.5,3.5v17.94
		C221.96,229.91,220.39,231.48,218.46,231.48z"/>
</g>
<g>
	<path class="st1" d="M142.39,243.16h-24.86c-1.93,0-3.5-1.57-3.5-3.5s1.57-3.5,3.5-3.5h24.86c1.93,0,3.5,1.57,3.5,3.5
		S144.32,243.16,142.39,243.16z"/>
	<path class="st1" d="M142.39,293.16h-24.86c-1.93,0-3.5-1.57-3.5-3.5s1.57-3.5,3.5-3.5h24.86c1.93,0,3.5,1.57,3.5,3.5
		S144.32,293.16,142.39,293.16z"/>
</g>
<g>
	<path class="st1" d="M319.62,243.16h-24.86c-1.93,0-3.5-1.57-3.5-3.5s1.57-3.5,3.5-3.5h24.86c1.93,0,3.5,1.57,3.5,3.5
		S321.55,243.16,319.62,243.16z"/>
	<path class="st1" d="M319.62,293.16h-24.86c-1.93,0-3.5-1.57-3.5-3.5s1.57-3.5,3.5-3.5h24.86c1.93,0,3.5,1.57,3.5,3.5
		S321.55,293.16,319.62,293.16z"/>
</g>
</svg>
