<!DOCTYPE svg PUBLIC "-//W3C//DTD SVG 1.1//EN" "http://www.w3.org/Graphics/SVG/1.1/DTD/svg11.dtd">
<!-- Uploaded to: SVG Repo, www.svgrepo.com, Transformed by: SVG Repo Mixer Tools -->
<svg height="800px" width="800px" version="1.1" id="Layer_1" xmlns="http://www.w3.org/2000/svg" xmlns:xlink="http://www.w3.org/1999/xlink" viewBox="0 0 512 512" xml:space="preserve" fill="#000000">
<g id="SVGRepo_bgCarrier" stroke-width="0"/>
<g id="SVGRepo_tracerCarrier" stroke-linecap="round" stroke-linejoin="round"/>
<g id="SVGRepo_iconCarrier"> <circle style="fill:#273B7A;" cx="256" cy="256" r="256"/> <path style="fill:#121149;" d="M505.623,312.994L342.5,149.871l-97.992,231.4l27.396,27.396l-151.174-5.258l107.034,107.034 C237.037,511.46,246.455,512,256,512C377.794,512,479.715,426.944,505.623,312.994z"/> <ellipse style="fill:#FFEDB5;" cx="256" cy="398.222" rx="138.774" ry="23.13"/> <path style="fill:#FEE187;" d="M256,375.093c-0.193,0-0.381,0.002-0.574,0.002v46.254c0.193,0,0.381,0.002,0.574,0.002 c76.643,0,138.774-10.355,138.774-23.13C394.774,385.448,332.643,375.093,256,375.093z"/> <path style="fill:#FFC61B;" d="M256,98.263c-54.269,0-98.263,43.994-98.263,98.263S256,393.051,256,393.051 s98.263-142.257,98.263-196.525S310.269,98.263,256,98.263z M256,232.889c-21.152,0-38.3-17.148-38.3-38.3s17.148-38.3,38.3-38.3 c21.152,0,38.3,17.148,38.3,38.3S277.152,232.889,256,232.889z"/> <path style="fill:#EAA22F;" d="M354.263,196.525c0-54.269-43.994-98.263-98.263-98.263c-0.193,0-0.381,0.014-0.574,0.014v58.03 c0.191-0.003,0.381-0.016,0.574-0.016c21.152,0,38.3,17.148,38.3,38.3s-17.148,38.3-38.3,38.3c-0.193,0-0.383-0.012-0.574-0.016 v159.339c0.371,0.543,0.574,0.836,0.574,0.836S354.263,250.794,354.263,196.525z"/> </g>
</svg>