<?xml version="1.0" encoding="iso-8859-1"?>
<!-- Uploaded to: SVG Repo, www.svgrepo.com, Generator: SVG Repo Mixer Tools -->
<svg height="800px" width="800px" version="1.1" id="Layer_1" xmlns="http://www.w3.org/2000/svg" xmlns:xlink="http://www.w3.org/1999/xlink" 
	 viewBox="0 0 512 512" xml:space="preserve">
<circle style="fill:#273B7A;" cx="256" cy="256" r="256"/>
<path style="fill:#121149;" d="M270.396,511.59c129.919-7.204,233.989-111.273,241.193-241.193l-139.71-139.71l-98.864,191.271
	l-142.329,49.923L270.396,511.59z"/>
<path style="fill:#FFEDB5;" d="M384.559,149.652l-12.086-18.129c-12.348-18.522-38.555-21.118-54.296-5.377l-36.119,36.119
	c-17.025,17.025-12.367,45.728,9.168,56.496l4.986,2.493c9.187,4.594,11.174,16.837,3.912,24.1l-54.767,54.767
	c-7.263,7.263-19.508,5.277-24.1-3.912l-2.493-4.986c-10.768-21.537-39.471-26.193-56.496-9.168l-36.119,36.119
	c-15.741,15.741-13.147,41.948,5.377,54.296l18.129,12.086c27.458,18.304,64.019,14.684,87.354-8.649L375.91,237.008
	C399.243,213.671,402.863,177.111,384.559,149.652z"/>
<path style="fill:#FEE187;" d="M245.355,300.123c-7.263,7.263-19.508,5.275-24.1-3.912l-2.493-4.986
	c-10.768-21.537-39.471-26.193-56.496-9.168l-36.119,36.119c-15.741,15.741-13.147,41.948,5.377,54.296l18.129,12.085
	c27.458,18.304,64.019,14.684,87.354-8.649l66.005-66.003l-33.72-33.72L245.355,300.123z"/>
<path style="fill:#FFC61B;" d="M318.178,126.149l-36.119,36.119c-15.722,15.722-12.941,41.389,4.532,53.708l85.289-85.289
	C359.305,112.938,333.674,110.651,318.178,126.149z"/>
<path style="fill:#EAA22F;" d="M215.974,286.591c-12.319-17.474-37.986-20.254-53.708-4.532l-36.119,36.119
	c-15.496,15.496-13.21,41.127,4.539,53.701L215.974,286.591z"/>
</svg>