<?xml version="1.0" encoding="iso-8859-1"?>
<!-- Uploaded to: SVG Repo, www.svgrepo.com, Generator: SVG Repo Mixer Tools -->
<svg height="800px" width="800px" version="1.1" id="Layer_1" xmlns="http://www.w3.org/2000/svg" xmlns:xlink="http://www.w3.org/1999/xlink" 
	 viewBox="0 0 512 512" xml:space="preserve">
<path style="fill:#7D868C;" d="M309.045,0L309.045,0c-12.626,0-22.86,10.235-22.86,22.86v28.75h45.721V22.86
	C331.905,10.235,321.67,0,309.045,0z"/>
<path style="opacity:0.15;enable-background:new    ;" d="M286.184,22.86v28.75h10.432V18.614c0-7.543,3.67-14.211,9.303-18.375
	C294.777,1.766,286.184,11.298,286.184,22.86z"/>
<path style="fill:#333E48;" d="M331.918,43.117H180.082c-19.848,0-35.937,16.089-35.937,35.937v397.008
	c0,19.848,16.089,35.937,35.937,35.937h151.837c19.847,0,35.937-16.089,35.937-35.937V79.054
	C367.854,59.207,351.765,43.117,331.918,43.117z"/>
<path style="opacity:0.15;enable-background:new    ;" d="M349.388,494.834H197.551c-19.847,0-35.937-16.089-35.937-35.937V61.888
	c0-5.554,1.262-10.814,3.512-15.509c-12.379,5.675-20.981,18.167-20.981,32.676v397.008c0,19.848,16.089,35.937,35.937,35.937
	h151.837c14.293,0,26.635-8.344,32.425-20.428C359.788,493.661,354.727,494.834,349.388,494.834z"/>
<path style="fill:#6DABE4;" d="M309.971,99.12h-107.95c-15.539,0-28.135,12.596-28.135,28.135v40.682
	c0,15.539,12.596,28.135,28.135,28.135h107.95c15.539,0,28.135-12.596,28.135-28.135v-40.682
	C338.106,111.716,325.51,99.12,309.971,99.12z"/>
<g>
	<path style="fill:#7D868C;" d="M267.836,281.951h-23.679c-3.968,0-7.186,3.217-7.186,7.186v10.354c0,3.969,3.217,7.186,7.186,7.186
		h23.679c3.968,0,7.186-3.217,7.186-7.186v-10.354C275.022,285.168,271.805,281.951,267.836,281.951z"/>
	<path style="fill:#7D868C;" d="M204.751,281.951h-23.679c-3.968,0-7.186,3.217-7.186,7.186v10.354c0,3.969,3.217,7.186,7.186,7.186
		h23.679c3.968,0,7.186-3.217,7.186-7.186v-10.354C211.937,285.168,208.72,281.951,204.751,281.951z"/>
	<path style="fill:#7D868C;" d="M307.242,281.951h23.679c3.969,0,7.186,3.217,7.186,7.186v10.354c0,3.969-3.217,7.186-7.186,7.186
		h-23.679c-3.969,0-7.186-3.217-7.186-7.186v-10.354C300.056,285.168,303.274,281.951,307.242,281.951z"/>
	<path style="fill:#7D868C;" d="M267.836,330.531h-23.679c-3.968,0-7.186,3.217-7.186,7.186v10.354c0,3.969,3.217,7.186,7.186,7.186
		h23.679c3.968,0,7.186-3.217,7.186-7.186v-10.354C275.022,333.749,271.805,330.531,267.836,330.531z"/>
	<path style="fill:#7D868C;" d="M204.751,330.531h-23.679c-3.968,0-7.186,3.217-7.186,7.186v10.354c0,3.969,3.217,7.186,7.186,7.186
		h23.679c3.968,0,7.186-3.217,7.186-7.186v-10.354C211.937,333.749,208.72,330.531,204.751,330.531z"/>
	<path style="fill:#7D868C;" d="M307.242,330.531h23.679c3.969,0,7.186,3.217,7.186,7.186v10.354c0,3.969-3.217,7.186-7.186,7.186
		h-23.679c-3.969,0-7.186-3.217-7.186-7.186v-10.354C300.056,333.749,303.274,330.531,307.242,330.531z"/>
	<path style="fill:#7D868C;" d="M267.836,379.113h-23.679c-3.968,0-7.186,3.217-7.186,7.186v10.354c0,3.969,3.217,7.186,7.186,7.186
		h23.679c3.968,0,7.186-3.217,7.186-7.186v-10.354C275.022,382.33,271.805,379.113,267.836,379.113z"/>
	<path style="fill:#7D868C;" d="M204.751,379.113h-23.679c-3.968,0-7.186,3.217-7.186,7.186v10.354c0,3.969,3.217,7.186,7.186,7.186
		h23.679c3.968,0,7.186-3.217,7.186-7.186v-10.354C211.937,382.33,208.72,379.113,204.751,379.113z"/>
	<path style="fill:#7D868C;" d="M307.242,379.113h23.679c3.969,0,7.186,3.217,7.186,7.186v10.354c0,3.969-3.217,7.186-7.186,7.186
		h-23.679c-3.969,0-7.186-3.217-7.186-7.186v-10.354C300.056,382.33,303.274,379.113,307.242,379.113z"/>
	<path style="fill:#7D868C;" d="M267.836,427.694h-23.679c-3.968,0-7.186,3.217-7.186,7.186v10.354c0,3.968,3.217,7.186,7.186,7.186
		h23.679c3.968,0,7.186-3.217,7.186-7.186V434.88C275.022,430.911,271.805,427.694,267.836,427.694z"/>
	<path style="fill:#7D868C;" d="M204.751,427.694h-23.679c-3.968,0-7.186,3.217-7.186,7.186v10.354c0,3.968,3.217,7.186,7.186,7.186
		h23.679c3.968,0,7.186-3.217,7.186-7.186V434.88C211.937,430.911,208.72,427.694,204.751,427.694z"/>
	<path style="fill:#7D868C;" d="M307.242,427.694h23.679c3.969,0,7.186,3.217,7.186,7.186v10.354c0,3.968-3.217,7.186-7.186,7.186
		h-23.679c-3.969,0-7.186-3.217-7.186-7.186V434.88C300.056,430.911,303.274,427.694,307.242,427.694z"/>
</g>
<circle style="fill:#E8E8E8;" cx="255.997" cy="239.009" r="19.022"/>
<path style="fill:#FF6361;" d="M207.319,247.246h-28.812c-4.549,0-8.236-3.686-8.236-8.236c0-4.549,3.686-8.236,8.236-8.236h28.812
	c4.549,0,8.236,3.686,8.236,8.236C215.554,243.56,211.868,247.246,207.319,247.246z"/>
<path style="fill:#77E0C1;" d="M333.494,247.246h-28.813c-4.549,0-8.236-3.686-8.236-8.236c0-4.549,3.686-8.236,8.236-8.236h28.813
	c4.548,0,8.236,3.686,8.236,8.236C341.73,243.56,338.043,247.246,333.494,247.246z"/>
<path style="opacity:0.2;enable-background:new    ;" d="M282.72,82.465H229.28c-4.549,0-8.236-3.686-8.236-8.236
	c0-4.549,3.686-8.236,8.236-8.236h53.439c4.549,0,8.236,3.686,8.236,8.236S287.268,82.465,282.72,82.465z"/>
<path style="opacity:0.2;enable-background:new    ;" d="M277.862,490.543h-43.724c-4.549,0-8.236-3.686-8.236-8.236
	s3.686-8.236,8.236-8.236h43.724c4.549,0,8.236,3.686,8.236,8.236C286.097,486.856,282.411,490.543,277.862,490.543z"/>
</svg>